<?xml version="1.0" encoding="utf-8"?>
<!-- Generator: Adobe Illustrator 22.0.1, SVG Export Plug-In . SVG Version: 6.00 Build 0)  -->
<svg version="1.1" id="Layer_1" xmlns="http://www.w3.org/2000/svg" xmlns:xlink="http://www.w3.org/1999/xlink" x="0px" y="0px"
	 viewBox="0 0 16 16" enable-background="new 0 0 16 16" xml:space="preserve">
<path d="M15,3.664c-0.551,0.237-1.102,0.385-1.652,0.444c0.622-0.373,1.042-0.9,1.262-1.581c-0.569,0.337-1.176,0.568-1.821,0.693
	c-0.569-0.604-1.267-0.906-2.096-0.906c-0.794,0-1.47,0.28-2.03,0.839c-0.56,0.56-0.839,1.236-0.839,2.03
	c0,0.213,0.024,0.432,0.071,0.657c-1.173-0.059-2.273-0.354-3.3-0.884c-1.028-0.53-1.9-1.236-2.616-2.119
	C1.716,3.281,1.586,3.764,1.586,4.285c0,0.492,0.115,0.948,0.347,1.368c0.231,0.42,0.542,0.761,0.933,1.022
	C2.403,6.657,1.971,6.536,1.569,6.311v0.036c0,0.693,0.218,1.301,0.653,1.826c0.435,0.524,0.985,0.854,1.648,0.99
	C3.621,9.227,3.369,9.26,3.114,9.26c-0.166,0-0.347-0.015-0.542-0.044c0.184,0.574,0.521,1.047,1.013,1.417
	c0.492,0.37,1.048,0.561,1.67,0.573c-1.042,0.817-2.23,1.226-3.562,1.226c-0.255,0-0.486-0.012-0.693-0.035
	c1.332,0.859,2.801,1.288,4.406,1.288c1.019,0,1.975-0.161,2.869-0.484c0.894-0.323,1.658-0.755,2.292-1.297
	c0.634-0.542,1.18-1.165,1.639-1.87c0.459-0.705,0.801-1.44,1.026-2.207C13.457,7.058,13.57,6.29,13.57,5.52
	c0-0.166-0.003-0.29-0.009-0.373C14.123,4.738,14.603,4.244,15,3.664z"/>
</svg>
